<svg width="312" height="54" viewBox="0 0 312 54" fill="none" xmlns="http://www.w3.org/2000/svg">
<rect x="21" y="0.881958" width="274" height="51" fill="url(#paint0_linear_32_27)"/>
<path d="M119.5 37.882H117.5V35.882V33.882V31.882V29.882V27.882V25.882V23.882V21.882H115.5V19.882H117.5V17.882H119.5V15.882H121.5V17.882H123.5V19.882H121.5V21.882V23.882V25.882V27.882H123.5H125.5H127.5V29.882H125.5V31.882H123.5H121.5V33.882H123.5V35.882H121.5V37.882H119.5ZM127.5 27.882V25.882V23.882V21.882V19.882H125.5V17.882H123.5V15.882H125.5H127.5H129.5V17.882H131.5V19.882V21.882V23.882V25.882H129.5V27.882H127.5ZM145.5 35.882H147.5V37.882H145.5H143.5H141.5H139.5H137.5V35.882H135.5V33.882V31.882V29.882V27.882V25.882V23.882V21.882H133.5V19.882H135.5V17.882H137.5V15.882H139.5V17.882H141.5V19.882H139.5V21.882V23.882V25.882H141.5H143.5H145.5V27.882H143.5H141.5H139.5V29.882V31.882V33.882H141.5V35.882H143.5H145.5ZM147.5 35.882V33.882H149.5V35.882H147.5ZM147.5 21.882H145.5V19.882H143.5V17.882H141.5V15.882H143.5H145.5H147.5V17.882H149.5V15.882H151.5V17.882V19.882H149.5V21.882H147.5ZM167.5 37.882H165.5V35.882V33.882V31.882V29.882V27.882H163.5H161.5V25.882H163.5V23.882H165.5V21.882V19.882H163.5V17.882H161.5V19.882H159.5V21.882V23.882V25.882V27.882H161.5V29.882H159.5V31.882V33.882H161.5V35.882H159.5V37.882H157.5H155.5V35.882V33.882V31.882V29.882V27.882V25.882V23.882V21.882H153.5V19.882H155.5V17.882H157.5V15.882H159.5V17.882H161.5V15.882H163.5H165.5H167.5V17.882H169.5V19.882V21.882H167.5V23.882V25.882H169.5V27.882V29.882V31.882V33.882H171.5V35.882H169.5V37.882H167.5ZM177.5 37.882H175.5V35.882V33.882V31.882V29.882V27.882V25.882V23.882V21.882H173.5V19.882H175.5V17.882H177.5V15.882H179.5V17.882V19.882V21.882V23.882V25.882V27.882V29.882V31.882V33.882H181.5V35.882H179.5V37.882H177.5ZM193.5 35.882H195.5V37.882H193.5H191.5H189.5H187.5H185.5V35.882V33.882V31.882V29.882V27.882V25.882V23.882V21.882H183.5V19.882H185.5V17.882H187.5V15.882H189.5V17.882V19.882V21.882V23.882V25.882V27.882V29.882V31.882V33.882V35.882H191.5H193.5ZM195.5 35.882V33.882H197.5V35.882H195.5Z" fill="#DBD4BC"/>
<path d="M0 0.5H312" stroke="url(#paint1_linear_32_27)"/>
<path d="M138 0.69104H174" stroke="#DBD4BC"/>
<path d="M0 52.882H312" stroke="url(#paint2_linear_32_27)"/>
<path d="M138 52.691H174" stroke="#DBD4BC"/>
<defs>
<linearGradient id="paint0_linear_32_27" x1="21" y1="31.882" x2="276.273" y2="31.882" gradientUnits="userSpaceOnUse">
<stop stop-color="#262322" stop-opacity="0"/>
<stop offset="0.509615" stop-color="#262322"/>
<stop offset="1" stop-color="#262322" stop-opacity="0"/>
</linearGradient>
<linearGradient id="paint1_linear_32_27" x1="0" y1="1" x2="312" y2="1" gradientUnits="userSpaceOnUse">
<stop stop-color="#171719"/>
<stop offset="0.5" stop-color="#5C4742"/>
<stop offset="1" stop-color="#171719"/>
</linearGradient>
<linearGradient id="paint2_linear_32_27" x1="0" y1="53.382" x2="312" y2="53.382" gradientUnits="userSpaceOnUse">
<stop stop-color="#171719"/>
<stop offset="0.5" stop-color="#5C4742"/>
<stop offset="1" stop-color="#171719"/>
</linearGradient>
</defs>
</svg>
